<?xml version="1.0" standalone="no"?>
<!DOCTYPE svg PUBLIC "-//W3C//DTD SVG 20010904//EN"
 "http://www.w3.org/TR/2001/REC-SVG-20010904/DTD/svg10.dtd">
<svg version="1.0" xmlns="http://www.w3.org/2000/svg"
 width="500.000000pt" height="500.000000pt" viewBox="0 0 500.000000 500.000000"
 preserveAspectRatio="xMidYMid meet">
<metadata>
Created by potrace 1.14, written by Peter Selinger 2001-2017
</metadata>
<g transform="translate(0.000000,500.000000) scale(0.100000,-0.100000)"
fill="#000000" stroke="none">
<path d="M2774 3809 c-67 -8 -140 -49 -184 -101 -19 -23 -74 -87 -121 -142
-47 -56 -94 -112 -105 -125 -10 -13 -33 -40 -50 -60 -31 -35 -244 -288 -274
-325 -8 -10 -20 -23 -25 -30 -6 -6 -48 -56 -94 -111 -45 -55 -91 -110 -101
-122 -10 -11 -40 -47 -66 -79 -26 -32 -53 -64 -60 -72 -8 -7 -14 -20 -14 -28
0 -8 -4 -14 -8 -14 -10 0 -21 10 -150 145 -128 132 -186 164 -297 161 -88 -2
-132 -23 -206 -96 -67 -66 -104 -141 -102 -205 2 -55 7 -91 14 -100 4 -5 8
-13 8 -18 1 -25 41 -88 81 -128 178 -182 249 -269 220 -269 -11 0 -245 -273
-275 -320 -19 -31 -27 -51 -42 -110 -8 -32 -3 -97 11 -143 36 -119 162 -216
290 -222 124 -5 193 35 319 189 18 21 51 59 74 85 40 44 47 56 44 91 0 10 1
11 5 3 3 -7 10 -13 15 -13 5 0 39 -32 76 -72 256 -270 281 -288 418 -288 69 0
88 4 138 29 31 16 63 36 70 43 12 12 237 277 341 403 22 27 49 57 59 67 9 10
17 20 17 23 0 2 12 18 28 34 15 16 36 40 47 53 32 39 105 125 175 209 36 42
72 85 80 95 14 18 75 93 125 153 11 13 35 40 52 60 18 20 33 41 33 46 0 6 8
-2 18 -16 50 -74 218 -236 276 -267 70 -37 189 -38 255 -3 113 59 198 185 196
286 -2 45 -15 108 -27 123 -6 6 -7 12 -4 12 18 0 -67 99 -212 247 -56 56 -90
99 -85 106 10 17 34 45 70 82 17 19 35 40 40 48 8 16 82 103 120 142 12 13 19
26 16 29 -4 3 -2 6 4 6 23 0 64 92 68 151 1 15 5 34 8 43 4 9 3 16 -1 16 -4 0
-8 16 -10 35 -5 76 -68 162 -157 217 -75 46 -170 55 -258 24 -62 -22 -118 -69
-196 -166 -24 -30 -53 -64 -62 -75 -10 -11 -34 -38 -53 -59 l-34 -39 -41 44
c-264 283 -289 304 -387 317 -32 4 -82 5 -110 1z m81 -800 c4 -5 18 -15 32
-20 l25 -9 -28 -38 c-30 -39 -40 -51 -100 -122 -22 -25 -57 -68 -79 -94 -22
-27 -48 -58 -58 -70 -10 -11 -28 -34 -40 -49 -12 -15 -31 -38 -42 -51 -35 -40
-64 -75 -133 -159 -37 -45 -77 -93 -89 -107 -12 -14 -56 -67 -97 -117 -42 -51
-81 -93 -86 -93 -16 0 -71 75 -58 79 7 2 18 10 24 16 15 15 128 148 174 205
19 24 40 48 46 54 5 6 32 38 58 71 27 32 54 64 60 71 6 6 25 29 41 50 17 21
40 49 53 62 12 13 22 27 22 32 0 4 3 10 8 12 4 2 30 30 57 63 28 33 52 62 55
65 3 3 28 32 55 65 28 33 57 68 65 77 17 21 26 22 35 7z"/>
</g>
</svg>
